<svg viewBox="0 0 53 40" xmlns="http://www.w3.org/2000/svg"><path id="icon-logo-fb-mark" d="M25.4 4.172c3.736 3.318 3.79 9.897 3.79 9.897V0H16.56s5.101.854 8.84 4.172zM13.793 32.215V0H0s4.828 0 4.828 7.787v24.428C4.828 40 0 40 0 40h18.417s-4.624 0-4.624-7.785zm3.96-11.575s3.988.264 6.041 1.87c2.053 1.612 2.578 4.606 2.578 4.606V14.067s0 1.771-1.936 4.174c-1.93 2.399-6.683 2.399-6.683 2.399zm20.363-2.057c7.415-.228 12.942-3.602 12.942-9.316 0-7.022-7.981-9.252-15.277-9.252-.561 0-2.948.018-4.273.04 4.646 0 8.774 3.713 8.774 8.955 0 6.464-2.513 9.458-7.35 9.458 6.484.014 8.564 6.49 8.564 10.79 0 5.92-4.095 10.714-9.986 10.714 1.17.016 4.645.026 5.58.026 8.329 0 15.91-2.8 15.91-10.91-.002-5.481-5.759-10.218-14.884-10.505z"/></svg>